<?xml version="1.0" encoding="UTF-8" standalone="no"?>
<svg
   xmlns:dc="http://purl.org/dc/elements/1.1/"
   xmlns:cc="http://creativecommons.org/ns#"
   xmlns:rdf="http://www.w3.org/1999/02/22-rdf-syntax-ns#"
   xmlns:svg="http://www.w3.org/2000/svg"
   xmlns="http://www.w3.org/2000/svg"
   xmlns:sodipodi="http://sodipodi.sourceforge.net/DTD/sodipodi-0.dtd"
   xmlns:inkscape="http://www.inkscape.org/namespaces/inkscape"
   viewBox="0 0 36 36"
   version="1.1"
   id="svg22"
   sodipodi:docname="banana.svg"
   inkscape:version="1.0.1 (3bc2e813f5, 2020-09-07)">
  <metadata
     id="metadata28">
    <rdf:RDF>
      <cc:Work
         rdf:about="">
        <dc:format>image/svg+xml</dc:format>
        <dc:type
           rdf:resource="http://purl.org/dc/dcmitype/StillImage" />
      </cc:Work>
    </rdf:RDF>
  </metadata>
  <defs
     id="defs26" />
  <sodipodi:namedview
     pagecolor="#ffffff"
     bordercolor="#666666"
     borderopacity="1"
     objecttolerance="10"
     gridtolerance="10"
     guidetolerance="10"
     inkscape:pageopacity="0"
     inkscape:pageshadow="2"
     inkscape:window-width="837"
     inkscape:window-height="480"
     id="namedview24"
     showgrid="false"
     inkscape:zoom="22.055556"
     inkscape:cx="18"
     inkscape:cy="18"
     inkscape:window-x="26"
     inkscape:window-y="23"
     inkscape:window-maximized="0"
     inkscape:current-layer="svg22" />
  <g
     id="g908"
     style="opacity:1">
    <path
       style="color:#000000;font-style:normal;font-variant:normal;font-weight:normal;font-stretch:normal;font-size:medium;line-height:normal;font-family:sans-serif;font-variant-ligatures:normal;font-variant-position:normal;font-variant-caps:normal;font-variant-numeric:normal;font-variant-alternates:normal;font-variant-east-asian:normal;font-feature-settings:normal;font-variation-settings:normal;text-indent:0;text-align:start;text-decoration:none;text-decoration-line:none;text-decoration-style:solid;text-decoration-color:#000000;letter-spacing:normal;word-spacing:normal;text-transform:none;writing-mode:lr-tb;direction:ltr;text-orientation:mixed;dominant-baseline:auto;baseline-shift:baseline;text-anchor:start;white-space:normal;shape-padding:0;shape-margin:0;inline-size:0;clip-rule:nonzero;display:inline;overflow:visible;visibility:visible;isolation:auto;mix-blend-mode:normal;color-interpolation:sRGB;color-interpolation-filters:linearRGB;solid-color:#000000;solid-opacity:1;vector-effect:none;fill:#ffe8b6;fill-opacity:1;fill-rule:nonzero;stroke-width:1;stroke-linecap:butt;stroke-linejoin:miter;stroke-miterlimit:4;stroke-dasharray:none;stroke-dashoffset:0;stroke-opacity:1.0;color-rendering:auto;image-rendering:auto;shape-rendering:auto;text-rendering:auto;enable-background:accumulate;stop-color:#000000;stop-opacity:1;stroke:none;"
       d="m 28,2 c 2.684,-1.342 5,4 3,13 -1.106,4.977 -5,9 -9,12 -4,3 -11,-1 -7,-5 4,-4 8,-7 10,-13 1.304,-3.912 1,-6 3,-7 z"
       id="path910" />
    <path
       style="color:#000000;font-style:normal;font-variant:normal;font-weight:normal;font-stretch:normal;font-size:medium;line-height:normal;font-family:sans-serif;font-variant-ligatures:normal;font-variant-position:normal;font-variant-caps:normal;font-variant-numeric:normal;font-variant-alternates:normal;font-variant-east-asian:normal;font-feature-settings:normal;font-variation-settings:normal;text-indent:0;text-align:start;text-decoration:none;text-decoration-line:none;text-decoration-style:solid;text-decoration-color:#000000;letter-spacing:normal;word-spacing:normal;text-transform:none;writing-mode:lr-tb;direction:ltr;text-orientation:mixed;dominant-baseline:auto;baseline-shift:baseline;text-anchor:start;white-space:normal;shape-padding:0;shape-margin:0;inline-size:0;clip-rule:nonzero;display:inline;overflow:visible;visibility:visible;isolation:auto;mix-blend-mode:normal;color-interpolation:sRGB;color-interpolation-filters:linearRGB;solid-color:#000000;solid-opacity:1;vector-effect:none;fill-opacity:1;fill-rule:nonzero;stroke-width:1;stroke-linecap:butt;stroke-linejoin:miter;stroke-miterlimit:4;stroke-dasharray:none;stroke-dashoffset:0;stroke-opacity:1.0;color-rendering:auto;image-rendering:auto;shape-rendering:auto;text-rendering:auto;enable-background:accumulate;stop-color:#000000;stop-opacity:1;stroke:none;"
       d="M 29.035156 1.3222656 C 28.618073 1.2760016 28.185047 1.3488829 27.777344 1.5527344 C 26.643776 2.1195183 26.111721 3.0792111 25.759766 4.265625 C 25.40781 5.4520389 25.165265 6.9221728 24.525391 8.8417969 C 22.572825 14.699494 18.675947 17.617022 14.646484 21.646484 C 13.565462 22.727507 13.164698 23.911435 13.351562 24.976562 C 13.538427 26.04169 14.269428 26.92711 15.230469 27.544922 C 17.152551 28.780546 20.103448 29.048391 22.300781 27.400391 C 26.347821 24.365111 30.340746 20.273285 31.488281 15.109375 C 32.501692 10.549027 32.436676 6.89886 31.736328 4.4824219 C 31.386154 3.2742028 30.881518 2.3620314 30.195312 1.8105469 C 29.85221 1.5348046 29.45224 1.3685297 29.035156 1.3222656 z M 28.222656 2.4472656 C 28.74925 2.1839685 29.12794 2.2358908 29.568359 2.5898438 C 30.008779 2.9437967 30.461065 3.6771878 30.775391 4.7617188 C 31.404043 6.9307806 31.498308 10.450973 30.511719 14.890625 C 29.447254 19.680715 25.652179 23.634889 21.699219 26.599609 C 19.896552 27.951609 17.347449 27.719454 15.769531 26.705078 C 14.980572 26.19789 14.461573 25.52081 14.335938 24.804688 C 14.210302 24.088565 14.434538 23.272493 15.353516 22.353516 C 19.324053 18.382978 23.427175 15.300506 25.474609 9.1582031 C 26.138735 7.1658272 26.396706 5.6363674 26.71875 4.5507812 C 27.040794 3.4651951 27.356224 2.8804817 28.222656 2.4472656 z "
       id="path912" />
  </g>
  <g
     id="g902"
     style="opacity:1">
    <path
       style="color:#000000;font-style:normal;font-variant:normal;font-weight:normal;font-stretch:normal;font-size:medium;line-height:normal;font-family:sans-serif;font-variant-ligatures:normal;font-variant-position:normal;font-variant-caps:normal;font-variant-numeric:normal;font-variant-alternates:normal;font-variant-east-asian:normal;font-feature-settings:normal;font-variation-settings:normal;text-indent:0;text-align:start;text-decoration:none;text-decoration-line:none;text-decoration-style:solid;text-decoration-color:#000000;letter-spacing:normal;word-spacing:normal;text-transform:none;writing-mode:lr-tb;direction:ltr;text-orientation:mixed;dominant-baseline:auto;baseline-shift:baseline;text-anchor:start;white-space:normal;shape-padding:0;shape-margin:0;inline-size:0;clip-rule:nonzero;display:inline;overflow:visible;visibility:visible;isolation:auto;mix-blend-mode:normal;color-interpolation:sRGB;color-interpolation-filters:linearRGB;solid-color:#000000;solid-opacity:1;vector-effect:none;fill:#ffd983;fill-opacity:1;fill-rule:nonzero;stroke-width:1;stroke-linecap:butt;stroke-linejoin:miter;stroke-miterlimit:4;stroke-dasharray:none;stroke-dashoffset:0;stroke-opacity:1.0;color-rendering:auto;image-rendering:auto;shape-rendering:auto;text-rendering:auto;enable-background:accumulate;stop-color:#000000;stop-opacity:1;stroke:none;"
       d="m 31,8 c 0,3 -1,9 -4,13 -3,4 -7,5 -4,1 3,-4 5,-7 6,-11 1,-4 2,-7 2,-3 z"
       id="path904" />
    <path
       style="color:#000000;font-style:normal;font-variant:normal;font-weight:normal;font-stretch:normal;font-size:medium;line-height:normal;font-family:sans-serif;font-variant-ligatures:normal;font-variant-position:normal;font-variant-caps:normal;font-variant-numeric:normal;font-variant-alternates:normal;font-variant-east-asian:normal;font-feature-settings:normal;font-variation-settings:normal;text-indent:0;text-align:start;text-decoration:none;text-decoration-line:none;text-decoration-style:solid;text-decoration-color:#000000;letter-spacing:normal;word-spacing:normal;text-transform:none;writing-mode:lr-tb;direction:ltr;text-orientation:mixed;dominant-baseline:auto;baseline-shift:baseline;text-anchor:start;white-space:normal;shape-padding:0;shape-margin:0;inline-size:0;clip-rule:nonzero;display:inline;overflow:visible;visibility:visible;isolation:auto;mix-blend-mode:normal;color-interpolation:sRGB;color-interpolation-filters:linearRGB;solid-color:#000000;solid-opacity:1;vector-effect:none;fill-opacity:1;fill-rule:nonzero;stroke-width:1;stroke-linecap:butt;stroke-linejoin:miter;stroke-miterlimit:4;stroke-dasharray:none;stroke-dashoffset:0;stroke-opacity:1.0;color-rendering:auto;image-rendering:auto;shape-rendering:auto;text-rendering:auto;enable-background:accumulate;stop-color:#000000;stop-opacity:1;stroke:none;"
       d="M 30.923828 5.6542969 C 30.720115 5.5728115 30.47694 5.6384202 30.353516 5.7207031 C 30.106667 5.885269 30.036391 6.0600295 29.927734 6.2773438 C 29.493106 7.1466007 29.018003 8.869395 28.515625 10.878906 C 27.539403 14.783794 25.591609 17.709885 22.599609 21.699219 C 21.823609 22.733885 21.4375 23.43109 21.4375 24.09375 C 21.4375 24.42508 21.634626 24.801475 21.943359 24.947266 C 22.252093 25.093056 22.559271 25.062331 22.871094 24.984375 C 24.118385 24.672552 25.848391 23.370115 27.400391 21.300781 C 30.512391 17.151448 31.5 11.111111 31.5 8 C 31.5 7.4895833 31.485049 7.0868185 31.453125 6.7675781 C 31.421201 6.4483378 31.389707 6.2247257 31.275391 5.9960938 C 31.218233 5.8817778 31.127541 5.7357822 30.923828 5.6542969 z M 30.492188 7.8066406 C 30.493079 7.883571 30.5 7.916569 30.5 8 C 30.5 10.888889 29.487609 16.848552 26.599609 20.699219 C 25.151609 22.629885 23.381615 23.827448 22.628906 24.015625 C 22.514323 24.044271 22.510528 24.034877 22.470703 24.033203 C 22.486613 23.854055 22.700955 23.233362 23.400391 22.300781 C 26.408391 18.290115 28.460597 15.216206 29.484375 11.121094 C 29.859348 9.6212013 30.187767 8.6648387 30.492188 7.8066406 z "
       id="path906" />
  </g>
  <g
     id="g896"
     style="opacity:1">
    <path
       style="color:#000000;font-style:normal;font-variant:normal;font-weight:normal;font-stretch:normal;font-size:medium;line-height:normal;font-family:sans-serif;font-variant-ligatures:normal;font-variant-position:normal;font-variant-caps:normal;font-variant-numeric:normal;font-variant-alternates:normal;font-variant-east-asian:normal;font-feature-settings:normal;font-variation-settings:normal;text-indent:0;text-align:start;text-decoration:none;text-decoration-line:none;text-decoration-style:solid;text-decoration-color:#000000;letter-spacing:normal;word-spacing:normal;text-transform:none;writing-mode:lr-tb;direction:ltr;text-orientation:mixed;dominant-baseline:auto;baseline-shift:baseline;text-anchor:start;white-space:normal;shape-padding:0;shape-margin:0;inline-size:0;clip-rule:nonzero;display:inline;overflow:visible;visibility:visible;isolation:auto;mix-blend-mode:normal;color-interpolation:sRGB;color-interpolation-filters:linearRGB;solid-color:#000000;solid-opacity:1;vector-effect:none;fill:#ffcc4d;fill-opacity:1;fill-rule:nonzero;stroke-width:1;stroke-linecap:butt;stroke-linejoin:miter;stroke-miterlimit:4;stroke-dasharray:none;stroke-dashoffset:0;stroke-opacity:1.0;color-rendering:auto;image-rendering:auto;shape-rendering:auto;text-rendering:auto;enable-background:accumulate;stop-color:#000000;stop-opacity:1;stroke:none;"
       d="m 22,20 c -0.296,0.592 1.167,-3.833 -3,-6 -1.984,-1.032 -10,1 -4,1 3,0 4,2 2,4 -0.291,0.292 -0.489,0.603 -0.622,0.912 C 15.961,20.258 15.505,20.621 15,21 c -2.263,1.697 -5.84,4.227 -10,7 -3,2 -4,3 -4,4 0,3 9,3 14,1 5,-2 10,-7 10,-7 l 4,-4 c -3,-4 -7,-2 -7,-2 z"
       id="path898" />
    <path
       style="color:#000000;font-style:normal;font-variant:normal;font-weight:normal;font-stretch:normal;font-size:medium;line-height:normal;font-family:sans-serif;font-variant-ligatures:normal;font-variant-position:normal;font-variant-caps:normal;font-variant-numeric:normal;font-variant-alternates:normal;font-variant-east-asian:normal;font-feature-settings:normal;font-variation-settings:normal;text-indent:0;text-align:start;text-decoration:none;text-decoration-line:none;text-decoration-style:solid;text-decoration-color:#000000;letter-spacing:normal;word-spacing:normal;text-transform:none;writing-mode:lr-tb;direction:ltr;text-orientation:mixed;dominant-baseline:auto;baseline-shift:baseline;text-anchor:start;white-space:normal;shape-padding:0;shape-margin:0;inline-size:0;clip-rule:nonzero;display:inline;overflow:visible;visibility:visible;isolation:auto;mix-blend-mode:normal;color-interpolation:sRGB;color-interpolation-filters:linearRGB;solid-color:#000000;solid-opacity:1;vector-effect:none;fill-opacity:1;fill-rule:nonzero;stroke-width:1;stroke-linecap:butt;stroke-linejoin:miter;stroke-miterlimit:4;stroke-dasharray:none;stroke-dashoffset:0;stroke-opacity:1.0;color-rendering:auto;image-rendering:auto;shape-rendering:auto;text-rendering:auto;enable-background:accumulate;stop-color:#000000;stop-opacity:1;stroke:none;"
       d="M 16.669922 13.220703 C 15.694597 13.267947 14.672333 13.429686 13.882812 13.628906 C 13.488052 13.728516 13.156125 13.834305 12.890625 13.960938 C 12.757875 14.024254 12.641761 14.085297 12.523438 14.199219 C 12.464276 14.256179 12.399667 14.328838 12.353516 14.443359 C 12.307365 14.557881 12.295252 14.727163 12.34375 14.865234 C 12.440747 15.141378 12.634865 15.222743 12.785156 15.283203 C 12.935447 15.343664 13.094821 15.377988 13.292969 15.408203 C 13.689264 15.468633 14.235889 15.5 15 15.5 C 16.388889 15.5 17.171991 15.96117 17.427734 16.472656 C 17.683477 16.984142 17.558096 17.734873 16.646484 18.646484 C 16.362493 18.931452 16.184195 19.242059 16.03125 19.548828 C 15.626607 19.883976 15.187201 20.233381 14.699219 20.599609 C 12.447711 22.287992 8.8759342 24.815465 4.7226562 27.583984 C 3.2119889 28.591096 2.1936248 29.349344 1.5214844 30.021484 C 0.84934392 30.693625 0.5 31.333333 0.5 32 C 0.5 32.5 0.70183696 32.964134 1.0253906 33.322266 C 1.3489443 33.680398 1.7823789 33.949366 2.2890625 34.164062 C 3.3024296 34.593455 4.6283154 34.810861 6.1035156 34.875 C 9.0539161 35.003278 12.589498 34.503263 15.185547 33.464844 C 20.345629 31.400811 25.353516 26.353516 25.353516 26.353516 L 29.660156 22.046875 L 29.400391 21.699219 C 27.812391 19.581885 25.871212 19 24.375 19 C 23.286021 19 22.882931 19.242943 22.484375 19.402344 C 22.508008 19.02084 22.53361 18.55983 22.445312 17.960938 C 22.237375 16.550562 21.458816 14.715467 19.230469 13.556641 C 18.552589 13.204034 17.645247 13.17346 16.669922 13.220703 z M 16.71875 14.220703 C 17.616925 14.177197 18.455411 14.279966 18.769531 14.443359 C 20.708184 15.451533 21.280719 16.911548 21.457031 18.107422 C 21.545188 18.705359 21.522898 19.230719 21.494141 19.576172 C 21.479762 19.748898 21.463001 19.858869 21.457031 19.974609 C 21.455539 20.003545 21.453914 20.029503 21.460938 20.09375 C 21.464449 20.125873 21.464588 20.168325 21.503906 20.255859 C 21.513736 20.277743 21.544627 20.329638 21.544922 20.330078 C 21.545217 20.330518 21.624667 20.421572 21.625 20.421875 C 21.625333 20.422178 21.759395 20.509601 21.759766 20.509766 C 21.760137 20.509931 21.931231 20.552708 21.931641 20.552734 C 21.932051 20.552761 22.085487 20.539176 22.085938 20.539062 C 22.086388 20.538949 22.194821 20.498301 22.195312 20.498047 C 22.19608 20.49765 22.249626 20.459905 22.285156 20.433594 C 22.335434 20.409058 23.157699 20 24.375 20 C 25.534266 20 26.94779 20.479528 28.271484 22.021484 L 24.646484 25.646484 C 24.646484 25.646484 19.654371 30.599189 14.814453 32.535156 C 12.410502 33.496737 8.9460839 33.996722 6.1464844 33.875 C 4.7466846 33.814139 3.5100704 33.594045 2.6796875 33.242188 C 2.2644961 33.066259 1.9557432 32.858665 1.7675781 32.650391 C 1.579413 32.442116 1.5 32.25 1.5 32 C 1.5 31.666667 1.6506561 31.306375 2.2285156 30.728516 C 2.8063752 30.150656 3.7880111 29.408904 5.2773438 28.416016 C 9.4440658 25.638535 13.026289 23.106008 15.300781 21.400391 C 15.812797 21.016125 16.274669 20.647518 16.697266 20.296875 L 16.789062 20.220703 L 16.837891 20.109375 C 16.947812 19.853994 17.10777 19.600106 17.353516 19.353516 C 18.441904 18.265127 18.816523 17.015858 18.322266 16.027344 C 17.828009 15.03883 16.611111 14.5 15 14.5 C 14.929823 14.5 14.91773 14.49277 14.851562 14.492188 C 15.453094 14.377638 16.071211 14.252069 16.71875 14.220703 z "
       id="path900" />
  </g>
  <g
     id="g890"
     style="opacity:1">
    <path
       style="color:#000000;font-style:normal;font-variant:normal;font-weight:normal;font-stretch:normal;font-size:medium;line-height:normal;font-family:sans-serif;font-variant-ligatures:normal;font-variant-position:normal;font-variant-caps:normal;font-variant-numeric:normal;font-variant-alternates:normal;font-variant-east-asian:normal;font-feature-settings:normal;font-variation-settings:normal;text-indent:0;text-align:start;text-decoration:none;text-decoration-line:none;text-decoration-style:solid;text-decoration-color:#000000;letter-spacing:normal;word-spacing:normal;text-transform:none;writing-mode:lr-tb;direction:ltr;text-orientation:mixed;dominant-baseline:auto;baseline-shift:baseline;text-anchor:start;white-space:normal;shape-padding:0;shape-margin:0;inline-size:0;clip-rule:nonzero;display:inline;overflow:visible;visibility:visible;isolation:auto;mix-blend-mode:normal;color-interpolation:sRGB;color-interpolation-filters:linearRGB;solid-color:#000000;solid-opacity:1;vector-effect:none;fill:#ffe8b6;fill-opacity:1;fill-rule:nonzero;stroke-width:1;stroke-linecap:butt;stroke-linejoin:miter;stroke-miterlimit:4;stroke-dasharray:none;stroke-dashoffset:0;stroke-opacity:1.0;color-rendering:auto;image-rendering:auto;shape-rendering:auto;text-rendering:auto;enable-background:accumulate;stop-color:#000000;stop-opacity:1;stroke:none;"
       d="m 22,20 c 0,0 1.792,-4.729 -3,-7 -4.042,-1.916 -8,-1 -11,1 -3,2 -2,4 -3,5 -1,1 1,2 3,0 2,-2 8.316,-4.895 11,-4 3,1 2,2.999 3,5 z"
       id="path892" />
    <path
       style="color:#000000;font-style:normal;font-variant:normal;font-weight:normal;font-stretch:normal;font-size:medium;line-height:normal;font-family:sans-serif;font-variant-ligatures:normal;font-variant-position:normal;font-variant-caps:normal;font-variant-numeric:normal;font-variant-alternates:normal;font-variant-east-asian:normal;font-feature-settings:normal;font-variation-settings:normal;text-indent:0;text-align:start;text-decoration:none;text-decoration-line:none;text-decoration-style:solid;text-decoration-color:#000000;letter-spacing:normal;word-spacing:normal;text-transform:none;writing-mode:lr-tb;direction:ltr;text-orientation:mixed;dominant-baseline:auto;baseline-shift:baseline;text-anchor:start;white-space:normal;shape-padding:0;shape-margin:0;inline-size:0;clip-rule:nonzero;display:inline;overflow:visible;visibility:visible;isolation:auto;mix-blend-mode:normal;color-interpolation:sRGB;color-interpolation-filters:linearRGB;solid-color:#000000;solid-opacity:1;vector-effect:none;fill-opacity:1;fill-rule:nonzero;stroke-width:1;stroke-linecap:butt;stroke-linejoin:miter;stroke-miterlimit:4;stroke-dasharray:none;stroke-dashoffset:0;stroke-opacity:1.0;color-rendering:auto;image-rendering:auto;shape-rendering:auto;text-rendering:auto;enable-background:accumulate;stop-color:#000000;stop-opacity:1;stroke:none;"
       d="M 13.054688 11.539062 C 11.097077 11.788387 9.2777849 12.547232 7.7226562 13.583984 C 6.1373178 14.640877 5.5402649 15.790713 5.2695312 16.738281 C 5.1341644 17.212065 5.068594 17.628332 4.984375 17.951172 C 4.900156 18.274011 4.808096 18.484873 4.6464844 18.646484 C 4.308096 18.984873 4.1392852 19.468001 4.2988281 19.882812 C 4.4583711 20.297624 4.8516998 20.530106 5.2773438 20.615234 C 6.1286316 20.785492 7.2651273 20.441904 8.3535156 19.353516 C 9.2527234 18.454308 11.312128 17.221312 13.427734 16.378906 C 15.54334 15.5365 17.764921 15.115517 18.841797 15.474609 C 20.231165 15.937732 20.547187 16.483625 20.769531 17.261719 C 20.991875 18.039812 20.993177 19.102983 21.552734 20.222656 L 22.0625 21.244141 L 22.466797 20.177734 C 22.466797 20.177734 22.959054 18.894412 22.794922 17.300781 C 22.63079 15.707151 21.75401 13.752177 19.214844 12.548828 C 17.108896 11.550561 15.012298 11.289738 13.054688 11.539062 z M 13.164062 12.523438 C 14.945952 12.293762 16.849104 12.533439 18.785156 13.451172 C 20.630085 14.325511 21.253494 15.511359 21.541016 16.650391 C 21.203955 15.804895 20.574671 14.997547 19.158203 14.525391 C 17.551079 13.989483 15.271988 14.567875 13.058594 15.449219 C 10.8452 16.330563 8.7472766 17.545692 7.6464844 18.646484 C 6.7348727 19.558096 5.8713684 19.714508 5.4726562 19.634766 C 5.2733002 19.594894 5.2291289 19.514876 5.2324219 19.523438 C 5.2357148 19.531999 5.191904 19.515127 5.3535156 19.353516 C 5.691904 19.015127 5.849844 18.600989 5.953125 18.205078 C 6.056406 17.809168 6.1158356 17.412935 6.2304688 17.011719 C 6.4597351 16.209287 6.8626822 15.359123 8.2773438 14.416016 C 9.7222151 13.452768 11.382173 12.753113 13.164062 12.523438 z "
       id="path894" />
  </g>
  <g
     id="g884"
     style="opacity:1">
    <path
       style="color:#000000;font-style:normal;font-variant:normal;font-weight:normal;font-stretch:normal;font-size:medium;line-height:normal;font-family:sans-serif;font-variant-ligatures:normal;font-variant-position:normal;font-variant-caps:normal;font-variant-numeric:normal;font-variant-alternates:normal;font-variant-east-asian:normal;font-feature-settings:normal;font-variation-settings:normal;text-indent:0;text-align:start;text-decoration:none;text-decoration-line:none;text-decoration-style:solid;text-decoration-color:#000000;letter-spacing:normal;word-spacing:normal;text-transform:none;writing-mode:lr-tb;direction:ltr;text-orientation:mixed;dominant-baseline:auto;baseline-shift:baseline;text-anchor:start;white-space:normal;shape-padding:0;shape-margin:0;inline-size:0;clip-rule:nonzero;display:inline;overflow:visible;visibility:visible;isolation:auto;mix-blend-mode:normal;color-interpolation:sRGB;color-interpolation-filters:linearRGB;solid-color:#000000;solid-opacity:1;vector-effect:none;fill:#a6d388;fill-opacity:1;fill-rule:nonzero;stroke-width:1;stroke-linecap:butt;stroke-linejoin:miter;stroke-miterlimit:4;stroke-dasharray:none;stroke-dashoffset:0;stroke-opacity:1.0;color-rendering:auto;image-rendering:auto;shape-rendering:auto;text-rendering:auto;enable-background:accumulate;stop-color:#000000;stop-opacity:1;stroke:none;"
       d="m 26,35 h -4 c -2,0 -3,1 -4,1 -1,0 -2,-2 0,-2 2,0 4,0 5,-1 1,-1 5,2 3,2 z"
       id="path886" />
    <path
       style="color:#000000;font-style:normal;font-variant:normal;font-weight:normal;font-stretch:normal;font-size:medium;line-height:normal;font-family:sans-serif;font-variant-ligatures:normal;font-variant-position:normal;font-variant-caps:normal;font-variant-numeric:normal;font-variant-alternates:normal;font-variant-east-asian:normal;font-feature-settings:normal;font-variation-settings:normal;text-indent:0;text-align:start;text-decoration:none;text-decoration-line:none;text-decoration-style:solid;text-decoration-color:#000000;letter-spacing:normal;word-spacing:normal;text-transform:none;writing-mode:lr-tb;direction:ltr;text-orientation:mixed;dominant-baseline:auto;baseline-shift:baseline;text-anchor:start;white-space:normal;shape-padding:0;shape-margin:0;inline-size:0;clip-rule:nonzero;display:inline;overflow:visible;visibility:visible;isolation:auto;mix-blend-mode:normal;color-interpolation:sRGB;color-interpolation-filters:linearRGB;solid-color:#000000;solid-opacity:1;vector-effect:none;fill-opacity:1;fill-rule:nonzero;stroke-width:1;stroke-linecap:butt;stroke-linejoin:miter;stroke-miterlimit:4;stroke-dasharray:none;stroke-dashoffset:0;stroke-opacity:1.0;color-rendering:auto;image-rendering:auto;shape-rendering:auto;text-rendering:auto;enable-background:accumulate;stop-color:#000000;stop-opacity:1;stroke:none;"
       d="M 23.464844 32.300781 C 23.180047 32.320136 22.874604 32.418365 22.646484 32.646484 C 22.264336 33.028633 21.62689 33.263402 20.804688 33.380859 C 19.982485 33.498317 19 33.5 18 33.5 C 17.416667 33.5 16.947555 33.646169 16.646484 33.974609 C 16.345414 34.30305 16.299591 34.756959 16.390625 35.121094 C 16.481659 35.485228 16.685043 35.803621 16.957031 36.054688 C 17.22902 36.305754 17.583333 36.5 18 36.5 C 18.666667 36.5 19.206891 36.206306 19.810547 35.964844 C 20.414203 35.723381 21.083333 35.5 22 35.5 L 26 35.5 C 26.3125 35.5 26.598798 35.467608 26.839844 35.226562 C 26.960367 35.10604 27.038747 34.926859 27.050781 34.767578 C 27.062816 34.608297 27.026511 34.473983 26.978516 34.357422 C 26.786532 33.891176 26.393836 33.56005 25.916016 33.21875 C 25.438195 32.87745 24.872339 32.573257 24.310547 32.410156 C 24.029651 32.328606 23.749641 32.281426 23.464844 32.300781 z M 23.53125 33.296875 C 23.648797 33.288886 23.829724 33.312019 24.033203 33.371094 C 24.440161 33.489243 24.936805 33.74755 25.333984 34.03125 C 25.598228 34.219995 25.687622 34.354032 25.8125 34.5 L 22 34.5 C 20.916667 34.5 20.085797 34.776619 19.439453 35.035156 C 18.793109 35.293694 18.333333 35.5 18 35.5 C 17.916667 35.5 17.77098 35.444246 17.636719 35.320312 C 17.502457 35.196379 17.393341 35.014772 17.359375 34.878906 C 17.325409 34.743041 17.342086 34.69695 17.384766 34.650391 C 17.427445 34.603831 17.583333 34.5 18 34.5 C 19 34.5 20.017515 34.501683 20.945312 34.369141 C 21.87311 34.236598 22.735664 33.971367 23.353516 33.353516 C 23.375396 33.331635 23.413703 33.304864 23.53125 33.296875 z "
       id="path888" />
  </g>
  <g
     id="g854"
     style="opacity:1">
    <path
       style="color:#000000;font-style:normal;font-variant:normal;font-weight:normal;font-stretch:normal;font-size:medium;line-height:normal;font-family:sans-serif;font-variant-ligatures:normal;font-variant-position:normal;font-variant-caps:normal;font-variant-numeric:normal;font-variant-alternates:normal;font-variant-east-asian:normal;font-feature-settings:normal;font-variation-settings:normal;text-indent:0;text-align:start;text-decoration:none;text-decoration-line:none;text-decoration-style:solid;text-decoration-color:#000000;letter-spacing:normal;word-spacing:normal;text-transform:none;writing-mode:lr-tb;direction:ltr;text-orientation:mixed;dominant-baseline:auto;baseline-shift:baseline;text-anchor:start;white-space:normal;shape-padding:0;shape-margin:0;inline-size:0;clip-rule:nonzero;display:inline;overflow:visible;visibility:visible;isolation:auto;mix-blend-mode:normal;color-interpolation:sRGB;color-interpolation-filters:linearRGB;solid-color:#000000;solid-opacity:1;vector-effect:none;fill:#3e721d;fill-opacity:1;fill-rule:nonzero;stroke-width:1;stroke-linecap:butt;stroke-linejoin:miter;stroke-miterlimit:4;stroke-dasharray:none;stroke-dashoffset:0;stroke-opacity:1.0;color-rendering:auto;image-rendering:auto;shape-rendering:auto;text-rendering:auto;enable-background:accumulate;stop-color:#000000;stop-opacity:1;stroke:none;"
       d="m 19,35 c 0,0.552285 -0.447715,1 -1,1 -0.552285,0 -1,-0.447715 -1,-1 0,-0.552285 0.447715,-1 1,-1 0.552285,0 1,0.447715 1,1 z"
       id="path856" />
    <path
       style="color:#000000;font-style:normal;font-variant:normal;font-weight:normal;font-stretch:normal;font-size:medium;line-height:normal;font-family:sans-serif;font-variant-ligatures:normal;font-variant-position:normal;font-variant-caps:normal;font-variant-numeric:normal;font-variant-alternates:normal;font-variant-east-asian:normal;font-feature-settings:normal;font-variation-settings:normal;text-indent:0;text-align:start;text-decoration:none;text-decoration-line:none;text-decoration-style:solid;text-decoration-color:#000000;letter-spacing:normal;word-spacing:normal;text-transform:none;writing-mode:lr-tb;direction:ltr;text-orientation:mixed;dominant-baseline:auto;baseline-shift:baseline;text-anchor:start;white-space:normal;shape-padding:0;shape-margin:0;inline-size:0;clip-rule:nonzero;display:inline;overflow:visible;visibility:visible;isolation:auto;mix-blend-mode:normal;color-interpolation:sRGB;color-interpolation-filters:linearRGB;solid-color:#000000;solid-opacity:1;vector-effect:none;fill-opacity:1;fill-rule:nonzero;stroke-width:1;stroke-linecap:butt;stroke-linejoin:miter;stroke-miterlimit:4;stroke-dasharray:none;stroke-dashoffset:0;stroke-opacity:1.0;color-rendering:auto;image-rendering:auto;shape-rendering:auto;text-rendering:auto;enable-background:accumulate;stop-color:#000000;stop-opacity:1;stroke:none;"
       d="M 18 33.5 C 17.177495 33.5 16.5 34.177495 16.5 35 C 16.5 35.822505 17.177495 36.5 18 36.5 C 18.822505 36.5 19.5 35.822505 19.5 35 C 19.5 34.177495 18.822505 33.5 18 33.5 z M 18 34.5 C 18.282065 34.5 18.5 34.717935 18.5 35 C 18.5 35.282065 18.282065 35.5 18 35.5 C 17.717935 35.5 17.5 35.282065 17.5 35 C 17.5 34.717935 17.717935 34.5 18 34.5 z "
       id="path858" />
  </g>
  <g
     id="g878"
     style="opacity:1">
    <path
       style="color:#000000;font-style:normal;font-variant:normal;font-weight:normal;font-stretch:normal;font-size:medium;line-height:normal;font-family:sans-serif;font-variant-ligatures:normal;font-variant-position:normal;font-variant-caps:normal;font-variant-numeric:normal;font-variant-alternates:normal;font-variant-east-asian:normal;font-feature-settings:normal;font-variation-settings:normal;text-indent:0;text-align:start;text-decoration:none;text-decoration-line:none;text-decoration-style:solid;text-decoration-color:#000000;letter-spacing:normal;word-spacing:normal;text-transform:none;writing-mode:lr-tb;direction:ltr;text-orientation:mixed;dominant-baseline:auto;baseline-shift:baseline;text-anchor:start;white-space:normal;shape-padding:0;shape-margin:0;inline-size:0;clip-rule:nonzero;display:inline;overflow:visible;visibility:visible;isolation:auto;mix-blend-mode:normal;color-interpolation:sRGB;color-interpolation-filters:linearRGB;solid-color:#000000;solid-opacity:1;vector-effect:none;fill:#ffcc4d;fill-opacity:1;fill-rule:nonzero;stroke-width:1;stroke-linecap:butt;stroke-linejoin:miter;stroke-miterlimit:4;stroke-dasharray:none;stroke-dashoffset:0;stroke-opacity:1.0;color-rendering:auto;image-rendering:auto;shape-rendering:auto;text-rendering:auto;enable-background:accumulate;stop-color:#000000;stop-opacity:1;stroke:none;"
       d="m 32.208,28 c 0,0 -4.208,7 -6.208,7 h -4 c -2,0 0,-1 1,-2 1,-1 5,0 5,-6 0,-3 4.208,1 4.208,1 z"
       id="path880" />
    <path
       style="color:#000000;font-style:normal;font-variant:normal;font-weight:normal;font-stretch:normal;font-size:medium;line-height:normal;font-family:sans-serif;font-variant-ligatures:normal;font-variant-position:normal;font-variant-caps:normal;font-variant-numeric:normal;font-variant-alternates:normal;font-variant-east-asian:normal;font-feature-settings:normal;font-variation-settings:normal;text-indent:0;text-align:start;text-decoration:none;text-decoration-line:none;text-decoration-style:solid;text-decoration-color:#000000;letter-spacing:normal;word-spacing:normal;text-transform:none;writing-mode:lr-tb;direction:ltr;text-orientation:mixed;dominant-baseline:auto;baseline-shift:baseline;text-anchor:start;white-space:normal;shape-padding:0;shape-margin:0;inline-size:0;clip-rule:nonzero;display:inline;overflow:visible;visibility:visible;isolation:auto;mix-blend-mode:normal;color-interpolation:sRGB;color-interpolation-filters:linearRGB;solid-color:#000000;solid-opacity:1;vector-effect:none;fill-opacity:1;fill-rule:nonzero;stroke-width:1;stroke-linecap:butt;stroke-linejoin:miter;stroke-miterlimit:4;stroke-dasharray:none;stroke-dashoffset:0;stroke-opacity:1.0;color-rendering:auto;image-rendering:auto;shape-rendering:auto;text-rendering:auto;enable-background:accumulate;stop-color:#000000;stop-opacity:1;stroke:none;"
       d="M 28.597656 25.394531 C 28.284058 25.431793 27.953063 25.614592 27.761719 25.910156 C 27.570375 26.205721 27.5 26.566556 27.5 27 C 27.5 29.888889 26.620366 30.888859 25.632812 31.4375 C 25.139036 31.711821 24.591189 31.860429 24.072266 32.001953 C 23.553342 32.143478 23.043798 32.24917 22.646484 32.646484 C 22.20541 33.087559 21.475052 33.567917 21.021484 34.021484 C 20.908093 34.134876 20.805779 34.245497 20.724609 34.412109 C 20.643439 34.578722 20.606126 34.895842 20.765625 35.119141 C 20.925124 35.34244 21.129489 35.401451 21.322266 35.443359 C 21.515043 35.485267 21.729167 35.5 22 35.5 L 26 35.5 C 26.791667 35.5 27.453198 34.954079 28.162109 34.265625 C 28.87102 33.577171 29.595711 32.686124 30.255859 31.798828 C 31.576156 30.024236 32.636719 28.257812 32.636719 28.257812 L 32.84375 27.914062 L 32.552734 27.636719 C 32.552734 27.636719 31.486878 26.615169 30.359375 25.945312 C 29.795623 25.610384 29.224853 25.320007 28.597656 25.394531 z M 28.716797 26.386719 C 28.8786 26.367493 29.359408 26.514616 29.847656 26.804688 C 30.664096 27.28974 31.273307 27.87041 31.533203 28.107422 C 31.344119 28.417676 30.601201 29.658059 29.453125 31.201172 C 28.811273 32.063876 28.107433 32.922829 27.464844 33.546875 C 26.822255 34.170921 26.208333 34.5 26 34.5 L 22 34.5 C 22.362648 34.195229 22.887764 33.819267 23.353516 33.353516 C 23.456202 33.25083 23.821658 33.106522 24.333984 32.966797 C 24.846311 32.827071 25.485964 32.663179 26.117188 32.3125 C 27.379634 31.611141 28.5 30.111111 28.5 27 C 28.5 26.683444 28.560828 26.513029 28.599609 26.453125 C 28.63839 26.393221 28.635895 26.396332 28.716797 26.386719 z "
       id="path882" />
  </g>
  <g
     id="g872"
     style="opacity:1">
    <path
       style="color:#000000;font-style:normal;font-variant:normal;font-weight:normal;font-stretch:normal;font-size:medium;line-height:normal;font-family:sans-serif;font-variant-ligatures:normal;font-variant-position:normal;font-variant-caps:normal;font-variant-numeric:normal;font-variant-alternates:normal;font-variant-east-asian:normal;font-feature-settings:normal;font-variation-settings:normal;text-indent:0;text-align:start;text-decoration:none;text-decoration-line:none;text-decoration-style:solid;text-decoration-color:#000000;letter-spacing:normal;word-spacing:normal;text-transform:none;writing-mode:lr-tb;direction:ltr;text-orientation:mixed;dominant-baseline:auto;baseline-shift:baseline;text-anchor:start;white-space:normal;shape-padding:0;shape-margin:0;inline-size:0;clip-rule:nonzero;display:inline;overflow:visible;visibility:visible;isolation:auto;mix-blend-mode:normal;color-interpolation:sRGB;color-interpolation-filters:linearRGB;solid-color:#000000;solid-opacity:1;vector-effect:none;fill:#ffe8b6;fill-opacity:1;fill-rule:nonzero;stroke-width:1;stroke-linecap:butt;stroke-linejoin:miter;stroke-miterlimit:4;stroke-dasharray:none;stroke-dashoffset:0;stroke-opacity:1.0;color-rendering:auto;image-rendering:auto;shape-rendering:auto;text-rendering:auto;enable-background:accumulate;stop-color:#000000;stop-opacity:1;stroke:none;"
       d="m 26,19 c 3,0 8,3 7,9 -1,6 -5,7 -7,7 h -2 c -2,0 -1,-1 0,-2 1,-1 4,0 4,-6 0,-3 -4,-7 -6,-7 0,0 2,-1 4,-1 z"
       id="path874" />
    <path
       style="color:#000000;font-style:normal;font-variant:normal;font-weight:normal;font-stretch:normal;font-size:medium;line-height:normal;font-family:sans-serif;font-variant-ligatures:normal;font-variant-position:normal;font-variant-caps:normal;font-variant-numeric:normal;font-variant-alternates:normal;font-variant-east-asian:normal;font-feature-settings:normal;font-variation-settings:normal;text-indent:0;text-align:start;text-decoration:none;text-decoration-line:none;text-decoration-style:solid;text-decoration-color:#000000;letter-spacing:normal;word-spacing:normal;text-transform:none;writing-mode:lr-tb;direction:ltr;text-orientation:mixed;dominant-baseline:auto;baseline-shift:baseline;text-anchor:start;white-space:normal;shape-padding:0;shape-margin:0;inline-size:0;clip-rule:nonzero;display:inline;overflow:visible;visibility:visible;isolation:auto;mix-blend-mode:normal;color-interpolation:sRGB;color-interpolation-filters:linearRGB;solid-color:#000000;solid-opacity:1;vector-effect:none;fill-opacity:1;fill-rule:nonzero;stroke-width:1;stroke-linecap:butt;stroke-linejoin:miter;stroke-miterlimit:4;stroke-dasharray:none;stroke-dashoffset:0;stroke-opacity:1.0;color-rendering:auto;image-rendering:auto;shape-rendering:auto;text-rendering:auto;enable-background:accumulate;stop-color:#000000;stop-opacity:1;stroke:none;"
       d="M 26 18.5 C 23.833333 18.5 21.777344 19.552734 21.777344 19.552734 L 22 20.5 C 22.333333 20.5 22.901357 20.699422 23.511719 21.091797 C 24.12208 21.484172 24.782239 22.052455 25.380859 22.710938 C 26.578101 24.027903 27.5 25.722222 27.5 27 C 27.5 29.916667 26.812366 30.948478 26.083984 31.46875 C 25.719794 31.728886 25.310547 31.869141 24.888672 32.009766 C 24.466797 32.150391 24.014336 32.278633 23.646484 32.646484 C 23.146484 33.146484 22.609718 33.588815 22.400391 34.216797 C 22.348059 34.373792 22.3202 34.564409 22.376953 34.765625 C 22.433706 34.966841 22.582706 35.144783 22.748047 35.25 C 23.078729 35.460434 23.458333 35.5 24 35.5 L 26 35.5 C 27.083333 35.5 28.68709 35.23272 30.169922 34.154297 C 31.652753 33.075874 32.977108 31.184225 33.494141 28.082031 C 34.018578 24.935405 32.951725 22.494694 31.353516 20.896484 C 29.755306 19.298275 27.666667 18.5 26 18.5 z M 26 19.5 C 27.333333 19.5 29.244694 20.201725 30.646484 21.603516 C 32.048275 23.005306 32.981422 25.064595 32.505859 27.917969 C 32.022892 30.815775 30.847247 32.424126 29.580078 33.345703 C 28.31291 34.26728 26.916667 34.5 26 34.5 L 24 34.5 C 23.641662 34.5 23.527977 34.454484 23.439453 34.427734 C 23.542551 34.249282 23.898237 33.808795 24.353516 33.353516 C 24.485664 33.221367 24.783203 33.099609 25.205078 32.958984 C 25.626953 32.818359 26.155206 32.646114 26.666016 32.28125 C 27.687634 31.551522 28.5 30.083333 28.5 27 C 28.5 25.277778 27.421899 23.472097 26.119141 22.039062 C 25.467761 21.322545 24.75292 20.703328 24.050781 20.251953 C 23.814017 20.099748 23.591868 20.110116 23.359375 19.998047 C 24.085973 19.74926 25.034166 19.5 26 19.5 z "
       id="path876" />
  </g>
  <g
     id="g866"
     style="opacity:1">
    <path
       style="color:#000000;font-style:normal;font-variant:normal;font-weight:normal;font-stretch:normal;font-size:medium;line-height:normal;font-family:sans-serif;font-variant-ligatures:normal;font-variant-position:normal;font-variant-caps:normal;font-variant-numeric:normal;font-variant-alternates:normal;font-variant-east-asian:normal;font-feature-settings:normal;font-variation-settings:normal;text-indent:0;text-align:start;text-decoration:none;text-decoration-line:none;text-decoration-style:solid;text-decoration-color:#000000;letter-spacing:normal;word-spacing:normal;text-transform:none;writing-mode:lr-tb;direction:ltr;text-orientation:mixed;dominant-baseline:auto;baseline-shift:baseline;text-anchor:start;white-space:normal;shape-padding:0;shape-margin:0;inline-size:0;clip-rule:nonzero;display:inline;overflow:visible;visibility:visible;isolation:auto;mix-blend-mode:normal;color-interpolation:sRGB;color-interpolation-filters:linearRGB;solid-color:#000000;solid-opacity:1;vector-effect:none;fill:#ffd983;fill-opacity:1;fill-rule:nonzero;stroke-width:1;stroke-linecap:butt;stroke-linejoin:miter;stroke-miterlimit:4;stroke-dasharray:none;stroke-dashoffset:0;stroke-opacity:1.0;color-rendering:auto;image-rendering:auto;shape-rendering:auto;text-rendering:auto;enable-background:accumulate;stop-color:#000000;stop-opacity:1;stroke:none;"
       d="m 17,21 c 3,0 5,1 3,3 -1.581,1.581 -6,5 -10,6 -4,1 -8,1 -5,-1 3,-2 9.764,-8 12,-8 z"
       id="path868" />
    <path
       style="color:#000000;font-style:normal;font-variant:normal;font-weight:normal;font-stretch:normal;font-size:medium;line-height:normal;font-family:sans-serif;font-variant-ligatures:normal;font-variant-position:normal;font-variant-caps:normal;font-variant-numeric:normal;font-variant-alternates:normal;font-variant-east-asian:normal;font-feature-settings:normal;font-variation-settings:normal;text-indent:0;text-align:start;text-decoration:none;text-decoration-line:none;text-decoration-style:solid;text-decoration-color:#000000;letter-spacing:normal;word-spacing:normal;text-transform:none;writing-mode:lr-tb;direction:ltr;text-orientation:mixed;dominant-baseline:auto;baseline-shift:baseline;text-anchor:start;white-space:normal;shape-padding:0;shape-margin:0;inline-size:0;clip-rule:nonzero;display:inline;overflow:visible;visibility:visible;isolation:auto;mix-blend-mode:normal;color-interpolation:sRGB;color-interpolation-filters:linearRGB;solid-color:#000000;solid-opacity:1;vector-effect:none;fill-opacity:1;fill-rule:nonzero;stroke-width:1;stroke-linecap:butt;stroke-linejoin:miter;stroke-miterlimit:4;stroke-dasharray:none;stroke-dashoffset:0;stroke-opacity:1.0;color-rendering:auto;image-rendering:auto;shape-rendering:auto;text-rendering:auto;enable-background:accumulate;stop-color:#000000;stop-opacity:1;stroke:none;"
       d="M 17 20.5 C 16.217386 20.5 15.370082 20.929215 14.347656 21.539062 C 13.325231 22.14891 12.167571 22.96973 10.988281 23.849609 C 8.629702 25.609368 6.174952 27.615787 4.7226562 28.583984 C 4.3263216 28.848207 4.0315278 29.084371 3.8164062 29.324219 C 3.6012847 29.564067 3.4330281 29.828275 3.453125 30.169922 C 3.4732219 30.511569 3.7344417 30.778776 3.9824219 30.904297 C 4.230402 31.029818 4.504721 31.086028 4.8203125 31.121094 C 6.0826785 31.261357 8.0830489 30.993886 10.121094 30.484375 C 14.297184 29.440352 18.697973 26.009058 20.353516 24.353516 C 20.89771 23.809321 21.224891 23.29462 21.292969 22.75 C 21.361046 22.20538 21.095228 21.685557 20.6875 21.359375 C 19.872044 20.70701 18.555556 20.5 17 20.5 z M 17 21.5 C 18.444444 21.5 19.627956 21.79299 20.0625 22.140625 C 20.279772 22.314443 20.326454 22.41962 20.300781 22.625 C 20.275109 22.83038 20.10229 23.190679 19.646484 23.646484 C 18.140027 25.152942 13.702816 28.559648 9.8789062 29.515625 C 7.9169511 30.006114 5.9173215 30.238643 4.9296875 30.128906 C 4.7268047 30.106364 4.6112117 30.067876 4.5234375 30.035156 C 4.538772 30.008879 4.5177186 30.042116 4.5625 29.992188 C 4.6872222 29.853129 4.9236784 29.651793 5.2773438 29.416016 C 6.825048 28.384213 9.2535167 26.390632 11.585938 24.650391 C 12.752148 23.78027 13.890925 22.97609 14.859375 22.398438 C 15.827825 21.820785 16.664614 21.5 17 21.5 z "
       id="path870" />
  </g>
  <g
     id="g860"
     style="opacity:1">
    <path
       style="color:#000000;font-style:normal;font-variant:normal;font-weight:normal;font-stretch:normal;font-size:medium;line-height:normal;font-family:sans-serif;font-variant-ligatures:normal;font-variant-position:normal;font-variant-caps:normal;font-variant-numeric:normal;font-variant-alternates:normal;font-variant-east-asian:normal;font-feature-settings:normal;font-variation-settings:normal;text-indent:0;text-align:start;text-decoration:none;text-decoration-line:none;text-decoration-style:solid;text-decoration-color:#000000;letter-spacing:normal;word-spacing:normal;text-transform:none;writing-mode:lr-tb;direction:ltr;text-orientation:mixed;dominant-baseline:auto;baseline-shift:baseline;text-anchor:start;white-space:normal;shape-padding:0;shape-margin:0;inline-size:0;clip-rule:nonzero;display:inline;overflow:visible;visibility:visible;isolation:auto;mix-blend-mode:normal;color-interpolation:sRGB;color-interpolation-filters:linearRGB;solid-color:#000000;solid-opacity:1;vector-effect:none;fill:#c1694f;fill-opacity:1;fill-rule:nonzero;stroke-width:1;stroke-linecap:butt;stroke-linejoin:miter;stroke-miterlimit:4;stroke-dasharray:none;stroke-dashoffset:0;stroke-opacity:1.0;color-rendering:auto;image-rendering:auto;shape-rendering:auto;text-rendering:auto;enable-background:accumulate;stop-color:#000000;stop-opacity:1;stroke:none;"
       d="m 2,31 c 1,0 1,0 1,0.667 C 3,32.333 3,33 2,33 1,33 1,31.667 1,31.667 1,31.667 1,31 2,31 Z"
       id="path862" />
    <path
       style="color:#000000;font-style:normal;font-variant:normal;font-weight:normal;font-stretch:normal;font-size:medium;line-height:normal;font-family:sans-serif;font-variant-ligatures:normal;font-variant-position:normal;font-variant-caps:normal;font-variant-numeric:normal;font-variant-alternates:normal;font-variant-east-asian:normal;font-feature-settings:normal;font-variation-settings:normal;text-indent:0;text-align:start;text-decoration:none;text-decoration-line:none;text-decoration-style:solid;text-decoration-color:#000000;letter-spacing:normal;word-spacing:normal;text-transform:none;writing-mode:lr-tb;direction:ltr;text-orientation:mixed;dominant-baseline:auto;baseline-shift:baseline;text-anchor:start;white-space:normal;shape-padding:0;shape-margin:0;inline-size:0;clip-rule:nonzero;display:inline;overflow:visible;visibility:visible;isolation:auto;mix-blend-mode:normal;color-interpolation:sRGB;color-interpolation-filters:linearRGB;solid-color:#000000;solid-opacity:1;vector-effect:none;fill-opacity:1;fill-rule:nonzero;stroke-width:1;stroke-linecap:butt;stroke-linejoin:miter;stroke-miterlimit:4;stroke-dasharray:none;stroke-dashoffset:0;stroke-opacity:1.0;color-rendering:auto;image-rendering:auto;shape-rendering:auto;text-rendering:auto;enable-background:accumulate;stop-color:#000000;stop-opacity:1;stroke:none;"
       d="M 2 30.5 C 1.3888333 30.5 0.94556522 30.738448 0.72460938 31.033203 C 0.50365353 31.327958 0.5 31.667969 0.5 31.667969 C 0.5 31.667969 0.49275503 32.073888 0.65625 32.509766 C 0.73799748 32.727704 0.86673932 32.96775 1.0898438 33.166016 C 1.3129482 33.364281 1.6389167 33.5 2 33.5 C 2.6111667 33.5 3.1177809 33.21561 3.3222656 32.806641 C 3.5267504 32.397671 3.5 32.000969 3.5 31.667969 C 3.5 31.501219 3.5059778 31.364074 3.4785156 31.199219 C 3.4510534 31.034363 3.3428564 30.795041 3.1523438 30.667969 C 2.7713185 30.413825 2.5 30.5 2 30.5 z M 2 31.5 C 2.4133987 31.5 2.501666 31.528857 2.4941406 31.5 C 2.4961503 31.553402 2.5 31.576034 2.5 31.667969 C 2.5 32.000969 2.4732496 32.268345 2.4277344 32.359375 C 2.3822191 32.450405 2.3888333 32.5 2 32.5 C 1.8610833 32.5 1.8120518 32.469641 1.7539062 32.417969 C 1.6957607 32.366297 1.6370025 32.273514 1.59375 32.158203 C 1.507245 31.927581 1.5 31.667969 1.5 31.667969 C 1.5 31.667969 1.4963465 31.671557 1.5253906 31.632812 C 1.5544348 31.594068 1.6111667 31.5 2 31.5 z "
       id="path864" />
  </g>
</svg>
