<?xml version="1.0" encoding="UTF-8" standalone="no"?>
<svg
   xmlns:dc="http://purl.org/dc/elements/1.1/"
   xmlns:cc="http://creativecommons.org/ns#"
   xmlns:rdf="http://www.w3.org/1999/02/22-rdf-syntax-ns#"
   xmlns:svg="http://www.w3.org/2000/svg"
   xmlns="http://www.w3.org/2000/svg"
   xmlns:sodipodi="http://sodipodi.sourceforge.net/DTD/sodipodi-0.dtd"
   xmlns:inkscape="http://www.inkscape.org/namespaces/inkscape"
   inkscape:export-ydpi="21.942858"
   inkscape:export-xdpi="21.942858"
   inkscape:export-filename="/home/alan/dev/football-mobile/client/images/football-logo-32x32.png"
   sodipodi:docname="football-logo.svg"
   height="140"
   width="140"
   inkscape:version="1.0 (4035a4fb49, 2020-05-01)"
   version="1.1"
   id="svg2">
  <metadata
     id="metadata8">
    <rdf:RDF>
      <cc:Work
         rdf:about="">
        <dc:format>image/svg+xml</dc:format>
        <dc:type
           rdf:resource="http://purl.org/dc/dcmitype/StillImage" />
        <dc:title></dc:title>
      </cc:Work>
    </rdf:RDF>
  </metadata>
  <defs
     id="defs6" />
  <sodipodi:namedview
     inkscape:document-rotation="0"
     inkscape:current-layer="svg2"
     inkscape:window-maximized="1"
     inkscape:window-y="0"
     inkscape:window-x="0"
     inkscape:cy="51.094282"
     inkscape:cx="20.87843"
     inkscape:zoom="2.12"
     units="px"
     fit-margin-bottom="0"
     fit-margin-right="0"
     fit-margin-left="0"
     fit-margin-top="0"
     showgrid="false"
     id="namedview4"
     inkscape:window-height="1016"
     inkscape:window-width="1920"
     inkscape:pageshadow="2"
     inkscape:pageopacity="0"
     guidetolerance="10"
     gridtolerance="10"
     objecttolerance="10"
     borderopacity="1"
     bordercolor="#666666"
     pagecolor="#ffffff" />
  <g
     transform="translate(-4.6310906,23.927755)"
     id="g861">
    <rect
       style="fill:#adcabd;fill-opacity:1;stroke:#adcabd;stroke-width:1.17192;stroke-opacity:1"
       id="rect851"
       width="138.82808"
       height="138.82808"
       x="5.2170506"
       y="-23.341795" />
    <g
       id="g855">
      <path
         sodipodi:nodetypes="csssssssssssssscsccccssccccccccccccccccscccccccssscscccccsssssssssssssssssssssssssssssssssssssssssssssssssssssccssssssssssssssscccccc"
         inkscape:connector-curvature="0"
         id="path2987"
         d="m 65.21163,11.101681 c 0,0 2.07406,-3.869743 3.58043,-5.428398 1.01704,-1.052337 2.3307,-1.779422 3.58043,-2.540953 1.07341,-0.654082 2.15101,-1.35328 3.34944,-1.732467 0.815,-0.257869 1.68729,-0.30194 2.54095,-0.346494 1.23091,-0.06424 2.48464,-0.112574 3.69593,0.115498 1.24452,0.234328 2.4644,0.67198 3.58044,1.270476 1.86607,1.000714 3.56519,2.333854 5.0819,3.811429 0.84413,0.82235 1.54686,1.78735 2.19446,2.771948 0.62474,0.949832 1.28447,1.915782 1.61697,3.002944 0.11316,0.369995 0.16965,0.771873 0.1155,1.154978 -0.058,0.410569 -0.11439,0.928909 -0.46199,1.154978 -1.74399,1.13424 -4.1654,-0.423221 -6.23689,-0.230995 -2.43658,0.226105 -4.97794,0.511106 -7.16086,1.616969 -1.04678,0.530297 -2.16992,1.242134 -2.65645,2.309957 -0.19155,0.420409 0,1.385974 0,1.385974 0,0 2.30995,6.698874 2.19446,8.431344 -0.1155,1.73246 -3.00295,3.92692 -3.00295,3.92692 l -4.61991,-0.46199 -2.77195,-1.38597 -3.00294,-0.57749 c 0,0 -3.11233,-7.155607 -3.34944,-10.972295 -0.11145,-1.79409 0.46927,-3.573814 0.92398,-5.3129 0.17557,-0.671482 0.69299,-1.963463 0.69299,-1.963463 m 45.73714,15.361208 2.19446,1.38598 2.77195,0.69299 2.42545,2.42545 1.15498,1.61697 1.03948,2.19446 0.3465,1.73247 -0.69299,0.11549 0.1155,1.38598 1.50147,1.96346 5.0819,0.34649 3.00295,1.27048 4.85091,1.38597 3.00294,2.65645 1.73247,1.96347 c 0,0 0.34649,2.77194 0.23099,3.23394 -0.11549,0.46199 -1.61697,2.19446 -1.61697,2.19446 l -1.27047,1.73246 -8.31585,-0.92398 -4.27341,0.34649 -4.96641,-1.50147 -1.03948,1.38598 -0.231,3.34943 c 0,0 -0.80848,1.15498 -0.69299,1.73247 0.1155,0.57749 -0.69298,0.46199 0.231,2.54095 0.92398,2.07896 1.61697,1.50147 1.50147,1.96346 -0.1155,0.462 0.1155,6.46789 0.1155,6.46789 0,0 0.69299,3.23394 0.57749,3.69593 -0.1155,0.46199 -0.231,3.11844 -0.231,3.11844 l 1.84797,5.3129 1.38597,2.88744 0.92399,1.61697 -53.93749,-0.34649 c 0,0 -2.73969,-3.9358 -4.27342,-5.77489 -1.08157,-1.2969 -2.16051,-2.62345 -3.46494,-3.69593 -0.84165,-0.692 -1.69261,-1.58323 -2.77195,-1.73247 -0.95341,-0.13183 -1.89173,0.41912 -2.77195,0.80848 -2.76559,1.22336 -5.00414,3.44343 -7.73835,4.73541 -2.76309,1.30563 -5.71518,2.19449 -8.66234,3.00295 -1.66744,0.45741 -3.35338,0.99702 -5.0819,1.03948 -1.01246,0.0249 -2.01612,-0.23428 -3.00295,-0.46199 -1.13907,-0.26285 -2.49059,-0.24641 -3.34943,-1.03948 -0.45695,-0.42196 -0.51459,-1.13663 -0.69299,-1.73247 -0.55224,-1.84445 -0.72009,-3.7838 -1.15498,-5.65939 -0.44926,-1.93757 -1.20305,-3.80845 -1.50147,-5.77489 -0.37009,-2.43874 -0.35192,-4.92521 -0.34649,-7.39187 0.003,-1.50344 0.0227,-3.01547 0.23099,-4.50441 0.0712,-0.50869 0.28356,-0.9917 0.3465,-1.50147 0.25005,-2.02545 0.0396,-4.08197 0.11549,-6.12139 0.0258,-0.69358 0.0962,-1.38517 0.1155,-2.07896 0.01,-0.34636 0.24906,-0.79859 0,-1.03948 -0.83064,-0.80342 -2.30954,0.13845 -3.46493,0.1155 -1.58238,-0.0314 -3.17501,-0.0818 -4.73541,-0.3465 -1.02203,-0.17335 -2.04541,-0.41136 -3.00295,-0.80848 -1.06746,-0.44271 -2.17149,-0.92988 -3.00294,-1.73247 -0.52264,-0.50449 -0.88689,-1.17284 -1.15498,-1.84797 -0.1449,-0.3649 -0.25657,-0.76319 -0.231,-1.15497 0.13242,-2.02887 1.00028,-3.98433 1.96347,-5.77489 0.92297,-1.71582 2.21344,-3.23167 3.58043,-4.61992 1.21074,-1.22957 2.55533,-2.35857 4.04242,-3.23394 1.3986,-0.82328 2.96244,-1.34184 4.50442,-1.84796 1.65902,-0.54454 3.34889,-1.05713 5.08191,-1.27048 0.26747,-0.0329 0.57087,0.12717 0.80848,0 0.36716,-0.19649 0.28253,-0.96917 0.69299,-1.03948 0.18973,-0.0325 0.30799,0.231 0.46199,0.3465 0.30799,0.23099 0.57558,0.52917 0.92398,0.69298 0.89573,0.42118 1.92159,0.47653 2.88744,0.69299 0.92098,0.2064 1.82876,0.61188 2.77195,0.57749 0.56019,-0.0204 1.08202,-0.62946 1.61697,-0.46199 0.52219,0.16347 1.06674,0.72397 1.03948,1.27047 -0.008,0.16314 -0.35389,0.18333 -0.34649,0.3465 0.0273,0.60076 1.00643,0.6885 1.38598,1.15498 0.41306,0.50767 0.7455,1.10278 0.92398,1.73246 0.3366,1.1876 0.54416,2.50194 0.23099,3.69593 -0.43075,1.64235 -1.6885,2.96613 -2.77195,4.27342 -0.74716,0.90154 -1.80139,1.51767 -2.54095,2.42546 -0.2294,0.28158 -0.70779,0.58496 -0.57749,0.92398 0.10056,0.26162 0.60044,0.0432 0.80849,0.23099 0.1539,0.13893 0.20105,0.37234 0.23099,0.57749 0.0614,0.42079 0.0371,0.87357 -0.11549,1.27048 -0.20726,0.53902 -0.62529,0.98356 -1.03948,1.38598 -0.57459,0.55824 -1.38888,0.82772 -1.96347,1.38597 -0.27613,0.26828 -0.57124,0.55875 -0.69298,0.92398 -0.34089,1.02266 -0.0359,2.15656 0,3.23394 0.0578,1.73535 0.23622,3.4646 0.34649,5.1974 0.0808,1.27024 -0.0841,2.57825 0.23099,3.81143 0.35818,1.40163 1.84797,3.92693 1.84797,3.92693 l 3.11844,4.04242 c 0,0 2.42546,-1.27047 2.54095,-1.73246 0.1155,-0.462 1.62838,-0.27253 2.19446,-0.80849 1.33988,-1.26859 1.11174,-3.58781 2.19446,-5.08191 0.78421,-1.08215 2.51863,-1.41086 3.00295,-2.65644 0.26655,-0.68554 -0.43465,-1.48769 -0.231,-2.19446 0.37958,-1.31733 1.76326,-2.10495 2.54095,-3.23394 0.12735,-0.18487 0.18851,-0.41801 0.34649,-0.57749 2.9554,-2.98342 6.87927,-4.93418 10.7413,-6.58338 2.08687,-0.89115 4.61569,-0.60228 6.58338,-1.73247 0.42491,-0.24405 0.6693,-0.71842 1.03948,-1.03948 0.43627,-0.37837 1.00379,-0.60655 1.38597,-1.03948 0.41084,-0.46538 0.35046,-1.3794 0.92399,-1.61697 0.40554,-0.16798 0.99176,0.007 1.27048,0.34649 0.34309,0.41747 -0.22266,1.19549 0.11549,1.61698 1.43302,1.78618 4.33248,2.38469 6.58338,1.96346 2.778,-0.51988 6.69887,-5.1974 6.69887,-5.1974 l 0.46199,-1.03948 2.07896,-0.46199 c -2.23467,1.24531 0.3465,-1.38598 0.3465,-1.38598 l 11.03004,-5.37065 z"
         style="color:#000000;display:inline;overflow:visible;visibility:visible;fill:#ffffff;fill-opacity:1;stroke:none;stroke-width:3.7218;marker:none;enable-background:accumulate" />
      <path
         sodipodi:nodetypes="sssssssssssssssssssssssssssssssssssss"
         inkscape:connector-curvature="0"
         id="path2991"
         d="m 120.99708,40.322629 c -1.86758,0.30756 -3.77236,0.60891 -5.65939,0.462 -1.14508,-0.0891 -2.36998,-0.20864 -3.34944,-0.80849 -1.21076,-0.74151 -1.50251,-2.59808 -2.77195,-3.23394 -0.51748,-0.25921 -1.1807,0.0592 -1.73246,-0.1155 -0.98826,-0.31295 -1.68328,-1.25986 -2.65645,-1.61696 -0.69522,-0.25512 -1.45473,-0.31164 -2.19446,-0.3465 -0.61651,-0.029 -1.252,-0.045 -1.84797,0.1155 -0.49875,0.1343 -0.8796,0.59111 -1.38597,0.69299 -1.1348,0.22831 -2.38136,-0.63814 -3.46494,-0.231 -0.4587,0.17235 -1.08428,0.55152 -1.03948,1.03948 0.0683,0.74439 1.55571,0.58246 1.84797,1.27048 0.0915,0.21554 0.0511,0.52843 -0.1155,0.69298 -0.36029,0.35582 -1.00013,0.15975 -1.50147,0.231 -0.8841,0.12565 -2.29415,-0.46969 -2.65645,0.34649 -0.24698,0.55637 0.52339,1.17867 1.03948,1.50147 1.28794,0.8056 2.99479,0.52324 4.50441,0.69299 0.53698,0.0604 1.12543,-0.10895 1.61697,0.1155 0.64386,0.294 1.48464,0.79387 1.50147,1.50147 0.0136,0.57217 -1.03677,0.71048 -1.15497,1.27048 -0.0754,0.35736 0.0942,0.77542 0.34649,1.03948 0.37047,0.38768 1.16507,0.1599 1.50147,0.57749 0.31767,0.39434 -0.0625,1.08883 0.231,1.50147 0.42924,0.60346 1.24475,0.86097 1.96346,1.03948 1.27038,0.31553 2.63111,0.18511 3.92693,0 0.95281,-0.13612 1.81914,-0.67237 2.77195,-0.80848 0.41923,-0.0599 0.85713,-0.0922 1.27047,0 2.03398,0.45361 3.77982,1.75642 5.6594,2.65644 1.66166,0.79568 3.24234,1.77597 4.9664,2.42546 1.64311,0.61899 3.36594,1.01393 5.08191,1.38597 2.82063,0.61155 5.89717,2.53017 8.54684,1.38598 1.45085,-0.62652 2.14336,-2.43219 2.65645,-3.92693 0.37582,-1.09483 0.67562,-2.39619 0.23099,-3.46493 -0.90145,-2.16685 -3.25433,-3.49292 -5.3129,-4.61992 -2.3936,-1.31042 -5.19558,-1.69338 -7.85385,-2.30995 -1.33178,-0.3089 -2.67626,-0.74438 -4.04243,-0.69299 -0.31724,0.0119 -0.61072,0.17941 -0.92398,0.23099 z"
         style="color:#000000;display:inline;overflow:visible;visibility:visible;fill:#ffffff;fill-opacity:1;stroke:#adcabd;stroke-width:3.94217;stroke-linecap:butt;stroke-linejoin:miter;stroke-miterlimit:4;stroke-dasharray:none;stroke-dashoffset:0;stroke-opacity:1;marker:none;enable-background:accumulate" />
    </g>
  </g>
</svg>
