<?xml version="1.0" encoding="UTF-8" standalone="no"?>
<svg
   xmlns:dc="http://purl.org/dc/elements/1.1/"
   xmlns:cc="http://creativecommons.org/ns#"
   xmlns:rdf="http://www.w3.org/1999/02/22-rdf-syntax-ns#"
   xmlns:svg="http://www.w3.org/2000/svg"
   xmlns="http://www.w3.org/2000/svg"
   xmlns:sodipodi="http://sodipodi.sourceforge.net/DTD/sodipodi-0.dtd"
   xmlns:inkscape="http://www.inkscape.org/namespaces/inkscape"
   width="140"
   height="140"
   viewBox="0 0 37.041667 37.041667"
   version="1.1"
   id="svg8"
   inkscape:version="1.0 (4035a4fb49, 2020-05-01)"
   sodipodi:docname="football-logo1.svg">
  <defs
     id="defs2" />
  <sodipodi:namedview
     id="base"
     pagecolor="#ffffff"
     bordercolor="#666666"
     borderopacity="1.0"
     inkscape:pageopacity="0.0"
     inkscape:pageshadow="2"
     inkscape:zoom="2.8"
     inkscape:cx="-53.006219"
     inkscape:cy="139.19087"
     inkscape:document-units="mm"
     inkscape:current-layer="layer1"
     inkscape:document-rotation="0"
     showgrid="false"
     units="px"
     inkscape:window-width="1920"
     inkscape:window-height="1016"
     inkscape:window-x="0"
     inkscape:window-y="0"
     inkscape:window-maximized="1" />
  <metadata
     id="metadata5">
    <rdf:RDF>
      <cc:Work
         rdf:about="">
        <dc:format>image/svg+xml</dc:format>
        <dc:type
           rdf:resource="http://purl.org/dc/dcmitype/StillImage" />
        <dc:title></dc:title>
      </cc:Work>
    </rdf:RDF>
  </metadata>
  <g
     inkscape:label="background"
     id="layer2"
     inkscape:groupmode="layer" />
  <g
     inkscape:label="Layer 1"
     inkscape:groupmode="layer"
     id="layer1">
    <rect
       y="0.049313471"
       x="0.049313471"
       height="36.943039"
       width="36.943039"
       id="rect834"
       style="fill:#ff00ff;stroke:#000000;stroke-width:0.0986262;stroke-miterlimit:0.1" />
    <path
       style="fill:#ffffff;stroke:#ffffff;stroke-width:0.1;stroke-linecap:butt;stroke-linejoin:miter;stroke-miterlimit:0.1;stroke-dasharray:none;stroke-opacity:1;fill-opacity:1"
       d="M 17.266941,29.55209 15.30942,26.950828 c -0.272932,-0.153492 -0.545863,-0.306983 -0.818795,-0.460475 -0.250784,0.045 -0.501569,0.09 -0.752353,0.135006 -0.467641,0.315349 -0.935282,0.630698 -1.402923,0.946047 l -1.643311,0.749771 -1.9267923,0.585512 -1.5753009,0.06986 -0.8783145,-0.2702 C 6.2362688,28.603489 6.1609072,28.500628 6.0855457,28.397768 5.9988647,28.09786 5.9121836,27.797953 5.8255026,27.498045 L 5.5898211,26.339662 C 5.5272865,26.007456 5.4647518,25.675251 5.4022172,25.343045 5.3338075,24.661224 5.2653978,23.979402 5.1969881,23.297581 c 0.043463,-0.630114 0.086927,-1.260228 0.1303906,-1.890342 0.074869,-0.244786 0.1497387,-0.489573 0.224608,-0.734359 -0.01661,-0.479268 -0.03322,-0.958537 -0.049831,-1.437805 L 5.3952041,19.039628 5.0761944,19.150732 c -0.2546295,0.0323 -0.5092591,0.06459 -0.7638886,0.09689 C 3.9640436,19.184014 3.6157814,19.120403 3.2675192,19.056792 2.8349752,18.890966 2.4024311,18.72514 1.9698871,18.559314 1.7829599,18.368111 1.5960328,18.176908 1.4091056,17.985705 1.3685027,17.667741 1.3278997,17.349778 1.2872968,17.031814 1.4004313,16.765127 1.5135657,16.498439 1.6267002,16.231752 1.7615203,16.011758 1.8963405,15.791764 2.0311606,15.57177 c 0.2250386,-0.26315 0.4500771,-0.5263 0.6751157,-0.78945 0.2836052,-0.271609 0.5672104,-0.543218 0.8508156,-0.814827 0.4397418,-0.212642 0.8794836,-0.425285 1.3192254,-0.637927 0.4337129,-0.116733 0.8674259,-0.233467 1.3011388,-0.3502 0.2497386,-0.05158 0.4994773,-0.103168 0.7492159,-0.154752 0.3399571,0.03771 0.6799143,0.07542 1.0198714,0.113134 0.3449402,0.103568 0.6898804,0.207137 1.0348206,0.310705 0.2190096,0.07152 0.4380193,0.143033 0.6570289,0.214549 0.132636,0.194925 0.2652721,0.389849 0.3979081,0.584774 0.07182,0.20243 0.143649,0.404861 0.215473,0.607291 -0.0223,0.348478 -0.0446,0.696955 -0.0669,1.045433 -0.2725624,0.323254 -0.5451247,0.646509 -0.8176871,0.969763 l -0.5358662,0.539188 -0.038296,1.10929 -0.8299603,0.533836 0.03885,3.389328 c 0.1940635,0.38825 0.3881269,0.7765 0.5821904,1.16475 0.2460782,0.233098 0.4921564,0.466195 0.7382346,0.699293 l 0.9077526,-0.330637 c 0.112765,-0.185174 0.225531,-0.370347 0.338296,-0.555521 0.05241,-0.135435 0.104829,-0.270871 0.157244,-0.406306 0.03414,-0.147124 0.06829,-0.294249 0.10243,-0.441373 0.212704,-0.230637 0.425408,-0.461273 0.638112,-0.69191 0.05294,-0.303876 0.105874,-0.607752 0.158811,-0.911628 0.395018,-0.380775 0.790035,-0.761551 1.185053,-1.142326 0.446601,-0.318579 0.893203,-0.637158 1.339804,-0.955737 0.483297,-0.196863 0.966595,-0.393725 1.449892,-0.590588 0.290526,-0.0801 0.581052,-0.160197 0.871578,-0.240295 l 0.704645,0.0053 0.351584,-0.562904 c 0.06893,-0.104706 0.137865,-0.209413 0.206798,-0.314119 0.07186,-0.05438 0.14371,-0.108767 0.215565,-0.16315 0.07025,-0.03374 0.140511,-0.06749 0.210766,-0.10123 0.120271,0.03568 0.240541,0.07136 0.360812,0.107044 l 0.107229,0.211504 -0.0017,0.38259 0.559213,0.318364 c 0.391757,-0.0062 0.783513,-0.01249 1.17527,-0.01873 0.196032,-0.08868 0.392064,-0.177361 0.588096,-0.266042 0.121778,-0.191849 0.243556,-0.383697 0.365334,-0.575546 0.389942,-0.356783 0.779883,-0.713565 1.169825,-1.070348 0.523163,-0.302738 1.046325,-0.605475 1.569488,-0.908213 0.45343,-0.197939 0.906859,-0.395879 1.360289,-0.593818 0.381299,-0.113042 0.762598,-0.226085 1.143897,-0.339127 0.518887,-0.184159 1.037773,-0.368317 1.55666,-0.552476 0.675485,0.01101 1.278715,0.436112 1.278715,0.436112 0.32107,0.273116 0.642141,0.546232 0.963211,0.819348 0.139526,0.314457 0.279053,0.628915 0.418579,0.943372 -9.67e-4,0.33522 -0.0019,0.670441 -0.0029,1.005661 l -0.380743,0.201906 -0.964412,0.0275 -0.395139,-0.08905 -0.706401,-0.5988 -0.619561,-0.376131 -0.788252,-0.458997 -1.418241,0.08213 -0.887174,0.385912 -0.418948,0.526639 0.002,0.504399 0.473485,0.414426 0.515288,-0.01301 0.586342,0.418856 -0.02353,0.735189 0.287081,0.481883 0.814275,0.349185 1.207381,0.0074 0.169241,-0.147924 0.360905,-0.04503 0.42393,0.191295 1.231377,0.886343 0.536325,0.124854 0.40889,0.22876 -0.0016,0.222763 -0.408797,0.09431 -0.162133,-0.2235 -0.416642,0.07253 -0.07604,1.11335 -0.125409,0.715627 0.1291,0.517871 0.416087,1.314797 -0.03064,1.888958 0.122176,0.873332 0.19757,0.675947 0.09736,0.294925 0.294833,0.398553 0.303693,0.444971 0.110826,0.477639 0.0066,0.20366 z"
       id="path915"
       sodipodi:nodetypes="ccccccccccccccccccccccccccccccccccccccccccccccccccccccccccccccccccccccccccccccccccccccccccccccccccccccccccccccccccc" />
    <path
       style="fill:#ffffff;stroke:#ffffff;stroke-width:0.1;stroke-linecap:butt;stroke-linejoin:miter;stroke-opacity:1;stroke-miterlimit:4;stroke-dasharray:none;fill-opacity:1"
       d="m 26.193399,15.881183 0.588374,0.04835 0.447,0.351492 0.297048,0.14211 0.218887,-0.0096 0.565949,0.518794 0.279421,0.313935 0.211966,0.135927 0.524978,-0.0052 1.151276,-0.02039 0.548233,-0.120702 0.59114,-0.101692 0.858015,0.182621 0.817409,0.308767 1.146016,0.491479 0.758444,0.574901 0.375393,0.735743 -0.298709,0.816211 -0.375483,0.290495 -1.245955,-0.06736 -0.367459,-0.19314 -0.883851,-0.331837 h -0.730943 l -1.223164,-0.689788 -1.152752,-0.679084 -1.088342,-0.247032 -0.833192,0.318088 -0.813165,-0.07669 -0.224055,-0.278406 -0.175423,-0.362843 0.09615,-0.468502 -0.08388,-0.152907 -0.36921,-0.241218 -0.29271,-0.2259 -0.497847,-0.120332 -0.06773,-0.106306 -0.09376,-0.115534 0.157797,-0.238265 0.313104,-0.02621 0.151892,-0.09652 0.426884,-0.288834 z"
       id="path917" />
    <path
       style="fill:#ffffff;stroke:#ffffff;stroke-width:0.1;stroke-linecap:butt;stroke-linejoin:miter;stroke-miterlimit:4;stroke-dasharray:none;stroke-opacity:1;fill-opacity:1"
       d="m 18.115727,14.994747 -0.527192,-0.281175 c -0.12307,-0.0697 -0.24614,-0.139403 -0.36921,-0.209105 -0.194955,-0.03768 -0.389911,-0.07536 -0.584866,-0.113042 -0.120794,-0.165272 -0.241587,-0.330545 -0.362381,-0.495817 -0.150046,-0.322547 -0.300093,-0.645094 -0.450139,-0.967641 -0.08345,-0.29431 -0.166903,-0.588619 -0.250354,-0.882929 -0.04165,-0.275823 -0.0833,-0.551646 -0.124946,-0.827469 0.04952,-0.440265 0.09905,-0.880529 0.14857,-1.3207941 0.112765,-0.1868041 0.225531,-0.3736083 0.338296,-0.5604124 0.09717,-0.2039374 0.19434,-0.4078747 0.29151,-0.6118121 0.156414,-0.1750231 0.312827,-0.3500462 0.469241,-0.5250693 0.230514,-0.246878 0.461027,-0.4937561 0.691541,-0.7406341 0.239342,-0.1656107 0.478684,-0.3312213 0.718026,-0.496832 0.151061,-0.077668 0.302123,-0.1553369 0.453184,-0.2330053 0.376161,-0.03119 0.752323,-0.062381 1.128484,-0.093571 0.522762,0.051984 1.045525,0.103968 1.568287,0.155952 0.342725,0.1881268 0.685451,0.3762536 1.028176,0.5643804 0.327223,0.3046142 0.654445,0.6092283 0.981668,0.9138425 0.153215,0.2483544 0.306429,0.4967088 0.459644,0.7450632 l 0.243617,0.4833593 -0.09403,0.8430639 -1.15303,0.139157 c 0,0 -0.326928,-0.38201 -0.553492,-0.397078 -0.222529,-0.0148 -0.374743,0.258106 -0.590495,0.31458 -0.338218,0.08853 -1.04857,0.02362 -1.04857,0.02362 0,0 -0.119613,0.12018 -0.192033,0.162412 -0.5271,0.307382 -0.5271,0.307382 -0.5271,0.307382 l -0.200984,0.191849 0.119778,1.010735 c 0.116303,0.317164 0.232605,0.634329 0.348908,0.951493 0.05512,0.176469 0.110243,0.352938 0.165365,0.529407 -0.03104,0.168164 -0.06207,0.336327 -0.09311,0.504491 -0.17207,0.144294 -0.344141,0.288588 -0.516211,0.432882 l -0.365334,0.468871 z"
       id="path919"
       sodipodi:nodetypes="cccccccccccccccccccccccaacsccccccccc" />
  </g>
</svg>
